<svg id="Group_7" data-name="Group 7" xmlns="http://www.w3.org/2000/svg" width="83.301" height="82.589" viewBox="0 0 83.301 82.589">
  <rect id="svg_1" width="37.853" height="3.441" transform="translate(13.765 22.368)" fill="#b54542"/>
  <rect id="svg_2" width="37.853" height="3.441" transform="translate(13.765 32.691)" fill="#b54542"/>
  <rect id="svg_3" width="29.25" height="3.441" transform="translate(13.765 43.015)" fill="#b54542"/>
  <rect id="svg_4" width="20.647" height="3.441" transform="translate(13.765 53.339)" fill="#b54542"/>
  <rect id="svg_5" width="20.647" height="3.441" transform="translate(13.765 63.662)" fill="#b54542"/>
  <path id="svg_6" d="M66.176,31.258V14.052L53.123,1H.793V83.589H66.176V53.33L84.094,35.412,73.058,24.376Zm-1.721,6.586,6.17,6.17L49.978,64.662h-6.17v-6.17ZM54.132,6.874l6.17,6.17h-6.17V6.874Zm8.6,73.273H4.234V4.441H50.69V16.485H62.735V34.7L40.367,57.067V68.1H51.4L62.735,56.772ZM73.058,41.582l-6.17-6.17,6.17-6.17,6.17,6.17Z" transform="translate(-0.793 -1)" fill="#b54542"/>
</svg>
