<svg width="512" height="512" xmlns="http://www.w3.org/2000/svg">

 <g>
  <title>background</title>
  <rect fill="none" id="canvas_background" height="402" width="582" y="-1" x="-1"/>
 </g>
 <g>
  <title>Layer 1</title>
  <path id="svg_1" fill="#ffffff" d="m256,7c-137.533,0 -249,111.468 -249,249.002c0,137.531 111.467,248.998 249,248.998s249,-111.467 249,-248.998c0,-137.534 -111.467,-249.002 -249,-249.002zm0,478.08c-126.31,0 -229.08,-102.771 -229.08,-229.078c0,-126.31 102.77,-229.082 229.08,-229.082c126.309,0 229.08,102.771 229.08,229.082c0,126.307 -102.771,229.078 -229.08,229.078z"/>
  <polygon id="svg_2" points="368.545,157.073 354.461,142.988 255.863,241.587 157.733,143.456 143.648,157.54 241.78,255.672   143.648,353.809 157.733,367.893 255.863,269.75 354.461,368.361 368.545,354.275 269.947,255.672 " fill="#ffffff"/>
 </g>
</svg>