<svg xmlns="http://www.w3.org/2000/svg" width="49.909" height="70.997" viewBox="0 0 49.909 70.997">
  <g id="Group_5" data-name="Group 5" transform="translate(0 1412.6)">
    <path id="Path_2" data-name="Path 2" d="M9.382-1384.41l5.036,2.907,4.739-8.209h5.326v22.935H36.521v-22.935h3.267l9.833,20.438a2.959,2.959,0,0,1-1.4,3.942,2.959,2.959,0,0,1-3.942-1.4l-4.634-9.735v8.521a1.17,1.17,0,0,1-1.169,1.169h-.221v21.6a3.572,3.572,0,0,1-1.046,2.526,3.572,3.572,0,0,1-2.526,1.046h0a3.572,3.572,0,0,1-2.526-1.046,3.572,3.572,0,0,1-1.046-2.526v-12.88h-2.3v12.88a3.572,3.572,0,0,1-1.046,2.526,3.572,3.572,0,0,1-2.526,1.046h0a3.572,3.572,0,0,1-2.526-1.046,3.572,3.572,0,0,1-1.046-2.526v-21.6H21.33a1.17,1.17,0,0,1-1.169-1.169v-12.529l-3.172,5.468a1.164,1.164,0,0,1-1.589.424l-6.017-3.474v12.4h.645a1.7,1.7,0,0,1,1.7,1.7v.855a8.158,8.158,0,0,1,4.28,5.079H16v7.832h.628l-1.66,7.576-1.66-7.576h.628v-7.832H2.516v7.832h.8l-1.66,7.576L0-1350.195H.452v-7.832H.441v-.23a8.16,8.16,0,0,1,4.21-4.849v-.855a1.7,1.7,0,0,1,1.7-1.7h.645v-19.665h2.39Zm-2.356,34.244V-1358H9.09v7.832h.757l-1.66,7.576-1.66-7.576Zm20.625-39.545v-2.33a8.56,8.56,0,0,1-5.535-6.245l-6.463-6.463h6.671c0-.053,0-.107,0-.16a7.648,7.648,0,0,1,1.074-3.919,3.882,3.882,0,0,1,1.136-2.634,3.883,3.883,0,0,1,2.746-1.138H32.79a3.883,3.883,0,0,1,2.746,1.138,3.882,3.882,0,0,1,1.137,2.707,7.652,7.652,0,0,1,1.03,3.846c0,.054,0,.107,0,.16h7.559l-6.463,6.463a8.56,8.56,0,0,1-5.536,6.246v6.719H26.612v-4.389Zm-20.624.309a1.652,1.652,0,0,1-.34-.459l-4.1-8.2a.754.754,0,0,1,.033-.733.754.754,0,0,1,.641-.358h9.815a.754.754,0,0,1,.641.358.754.754,0,0,1,.033.733l-4.1,8.2a1.654,1.654,0,0,1-.466.568v2.876H7.027Zm2.619-3.269a1.654,1.654,0,0,1-1.48.914,1.654,1.654,0,0,1-1.48-.914l-1.293-2.585a.754.754,0,0,1,.033-.734.754.754,0,0,1,.641-.357h4.2a.754.754,0,0,1,.641.357.754.754,0,0,1,.033.734Z" fill="#b54542" fill-rule="evenodd"/>
  </g>
</svg>
