<?xml version="1.0" encoding="UTF-8" standalone="no"?>
<!DOCTYPE svg PUBLIC "-//W3C//DTD SVG 1.1//EN" "http://www.w3.org/Graphics/SVG/1.1/DTD/svg11.dtd">
<svg width="100%" height="100%" viewBox="0 0 30 30" version="1.1" xmlns="http://www.w3.org/2000/svg" xmlns:xlink="http://www.w3.org/1999/xlink" xml:space="preserve" xmlns:serif="http://www.serif.com/" style="fill-rule:evenodd;clip-rule:evenodd;stroke-linejoin:round;stroke-miterlimit:2;">
    <g transform="matrix(1,0,0,1,-1,-1)">
        <path d="M17,30L17,27C17,26.448 16.552,26 16,26C15.448,26 15,26.448 15,27L15,30C15,30.552 15.448,31 16,31C16.552,31 17,30.552 17,30ZM6.808,26.607L8.929,24.485C9.319,24.095 9.319,23.461 8.929,23.071C8.539,22.681 7.905,22.681 7.515,23.071L5.393,25.192C5.003,25.583 5.003,26.216 5.393,26.607C5.784,26.997 6.417,26.997 6.808,26.607ZM26.607,25.192L24.485,23.071C24.095,22.681 23.461,22.681 23.071,23.071C22.681,23.461 22.681,24.095 23.071,24.485L25.192,26.607C25.583,26.997 26.216,26.997 26.607,26.607C26.997,26.216 26.997,25.583 26.607,25.192ZM16,7C11.033,7 7,11.033 7,16C7,20.967 11.033,25 16,25C20.967,25 25,20.967 25,16C25,11.033 20.967,7 16,7ZM16,9C19.863,9 23,12.137 23,16C23,19.863 19.863,23 16,23C12.137,23 9,19.863 9,16C9,12.137 12.137,9 16,9ZM30,15L27,15C26.448,15 26,15.448 26,16C26,16.552 26.448,17 27,17L30,17C30.552,17 31,16.552 31,16C31,15.448 30.552,15 30,15ZM2,17L5,17C5.552,17 6,16.552 6,16C6,15.448 5.552,15 5,15L2,15C1.448,15 1,15.448 1,16C1,16.552 1.448,17 2,17ZM25.192,5.393L23.071,7.515C22.681,7.905 22.681,8.539 23.071,8.929C23.461,9.319 24.095,9.319 24.485,8.929L26.607,6.808C26.997,6.417 26.997,5.784 26.607,5.393C26.216,5.003 25.583,5.003 25.192,5.393ZM5.393,6.808L7.515,8.929C7.905,9.319 8.539,9.319 8.929,8.929C9.319,8.539 9.319,7.905 8.929,7.515L6.808,5.393C6.417,5.003 5.784,5.003 5.393,5.393C5.003,5.784 5.003,6.417 5.393,6.808ZM15,2L15,5C15,5.552 15.448,6 16,6C16.552,6 17,5.552 17,5L17,2C17,1.448 16.552,1 16,1C15.448,1 15,1.448 15,2Z"/>
    </g>
</svg>
