<?xml version="1.0" encoding="UTF-8" standalone="no"?>
<!DOCTYPE svg PUBLIC "-//W3C//DTD SVG 1.1//EN" "http://www.w3.org/Graphics/SVG/1.1/DTD/svg11.dtd">
<svg width="100%" height="100%" viewBox="0 0 28 23" version="1.1" xmlns="http://www.w3.org/2000/svg" xmlns:xlink="http://www.w3.org/1999/xlink" xml:space="preserve" xmlns:serif="http://www.serif.com/" style="fill-rule:evenodd;clip-rule:evenodd;stroke-linejoin:round;stroke-miterlimit:2;">
    <g transform="matrix(1,0,0,1,-2.8,-5)">
        <path d="M10.563,8.249C12.02,6.278 14.361,5 17,5C19.976,5 22.572,6.624 23.95,9.035C24.018,9.154 24.058,9.281 24.074,9.409C27.444,10.838 29.808,14.176 29.808,18.067C29.808,23.258 25.599,27.467 20.408,27.467C18.421,27.467 16.578,26.85 15.061,25.799C13.768,26.842 12.124,27.467 10.333,27.467C6.173,27.467 2.8,24.094 2.8,19.933C2.8,18.127 3.436,16.47 4.495,15.172C4.178,14.515 4,13.778 4,13C4,10.239 6.239,8 9,8C9.546,8 10.071,8.087 10.563,8.249ZM13.517,24.46C13.197,24.115 12.902,23.747 12.637,23.357C12.326,22.901 12.443,22.278 12.899,21.967C13.355,21.656 13.978,21.774 14.289,22.23C15.621,24.184 17.865,25.467 20.408,25.467C24.495,25.467 27.808,22.154 27.808,18.067C27.808,13.98 24.495,10.667 20.408,10.667C16.864,10.667 13.901,13.157 13.177,16.484C13.06,17.023 12.527,17.366 11.987,17.248C11.448,17.131 11.105,16.598 11.223,16.058C11.335,15.544 11.489,15.045 11.682,14.565C11.25,14.457 10.798,14.4 10.333,14.4C7.277,14.4 4.8,16.877 4.8,19.933C4.8,22.989 7.277,25.467 10.333,25.467C11.518,25.467 12.616,25.094 13.517,24.46ZM11.971,12.579C11.766,11.121 10.514,10 9,10C7.343,10 6,11.343 6,13C6,13.245 6.029,13.483 6.085,13.711C7.294,12.884 8.757,12.4 10.333,12.4C10.896,12.4 11.443,12.462 11.971,12.579ZM21.183,8.698C20.102,7.647 18.626,7 17,7C15.103,7 13.412,7.88 12.312,9.254C12.967,9.834 13.469,10.583 13.749,11.432C15.451,9.724 17.806,8.667 20.408,8.667C20.669,8.667 20.927,8.677 21.183,8.698Z"/>
    </g>
</svg>
