<svg xmlns="http://www.w3.org/2000/svg" width="48.9" height="48.9" viewBox="0 0 48.9 48.9">
  <g id="Group_34" data-name="Group 34" transform="translate(-8.2 -8.3)">
    <path id="Fill-45" d="M32.309,43.917A11.609,11.609,0,1,1,43.917,32.309,11.663,11.663,0,0,1,32.309,43.917Zm0-20.752a9.143,9.143,0,1,0,9.143,9.143,9.163,9.163,0,0,0-9.143-9.143Z" transform="translate(0.341 0.339)" fill="#b54542"/>
    <path id="Fill-46" d="M36.143,57.2H29.157l-1.952-5.958A24.53,24.53,0,0,1,23.4,49.7l-5.65,2.876-4.931-4.931L15.7,42a17.356,17.356,0,0,1-1.541-3.8L8.2,36.243V29.257l5.958-1.952A24.529,24.529,0,0,1,15.7,23.5l-2.876-5.65,4.931-4.931L23.4,15.8a17.356,17.356,0,0,1,3.8-1.541L29.157,8.3h6.986l1.952,5.958A24.529,24.529,0,0,1,41.9,15.8l5.65-2.876,4.931,4.931L49.6,23.5a17.357,17.357,0,0,1,1.541,3.8L57.1,29.257v6.986l-5.958,1.952A24.53,24.53,0,0,1,49.6,42l2.876,5.65-4.931,4.931L41.9,49.7a17.357,17.357,0,0,1-3.8,1.541L36.143,57.2ZM30.9,54.837H34.4l1.849-5.547.616-.205a18.333,18.333,0,0,0,4.417-1.849l.616-.308L47.135,49.6,49.6,47.132,46.93,41.893l.308-.616a16.762,16.762,0,0,0,1.849-4.417l.205-.616,5.547-1.849V30.9l-5.547-1.849-.205-.616a16.762,16.762,0,0,0-1.849-4.417L46.93,23.4,49.6,18.162,47.135,15.7,41.9,18.368l-.616-.308a16.762,16.762,0,0,0-4.417-1.849L36.246,16,34.4,10.457H30.9L29.054,16l-.616.205a18.333,18.333,0,0,0-4.417,1.849l-.616.308L18.165,15.7,15.7,18.162,18.37,23.4l-.308.616a16.762,16.762,0,0,0-1.849,4.417l-.205.616L10.46,30.9v3.493l5.547,1.849.205.616a16.762,16.762,0,0,0,1.849,4.417l.308.616L15.7,47.132,18.165,49.6,23.4,46.927l.616.308a16.762,16.762,0,0,0,4.417,1.849l.616.205L30.9,54.837Z" transform="translate(0 0)" fill="#b54542"/>
  </g>
</svg>
