<svg xmlns="http://www.w3.org/2000/svg" width="191" height="31.409" viewBox="0 0 191 31.409">
  <g id="Group_32" data-name="Group 32" transform="translate(-15 -20.171)">
    <g id="Group_1" data-name="Group 1" transform="translate(15 1630.462)">
      <path id="Path_1" data-name="Path 1" d="M8.924-1585.374A10.44,10.44,0,0,0,4.891-1589c-.116-.052,3.912,3.558,4.718,7.546,0,.005.611,0,.611,0s2.59-11.537,11.512-17.731a16.268,16.268,0,0,0-8.015,6.7c-.773,1.314-4.726-11.142,4.663-13.536,7.144-1.822,11.889-.3,11.889-4.222,0-.029.035-.04.084-.042a.286.286,0,0,1,.209.079.285.285,0,0,1,.088.206c0,1,0,4.747,0,4.747v4.861s-.43,10.509-9.033,10.509c-1.181,0-3.7-.27-5.713-.465-.343-.033-4.68,7.4-4.68,11.472H9.1a5.942,5.942,0,0,0-1.679-5.066c-.1-.1-6.415.915-6.415-3.579v-6.194s.138-1.211-.771-1.211,1.077-.028,1.077-.028S12.516-1593.931,8.924-1585.374Z" transform="translate(0)" fill="#fff" fill-rule="evenodd"/>
    </g>
    <text id="RAIN_GARDEN" data-name="RAIN GARDEN" transform="translate(61 43)" fill="#fff" font-size="20" font-family="RedHatText-Bold, Red Hat Text" font-weight="700"><tspan x="0" y="0">RAIN GARDEN</tspan></text>
  </g>
</svg>
