<svg xmlns="http://www.w3.org/2000/svg" width="95.964" height="98.343" viewBox="0 0 95.964 98.343">
  <g id="Group_1" data-name="Group 1" transform="translate(0 0)">
    <path id="Path_1" data-name="Path 1" d="M27.94-1532.276s-4.8-7.828-12.627-11.364c-.362-.163,12.248,11.141,14.773,23.627,0,.015,1.914,0,1.914,0s8.108-36.123,36.044-55.516a50.936,50.936,0,0,0-25.1,20.972c-2.421,4.114-14.8-34.885,14.6-42.382,22.367-5.7,37.224-.931,37.224-13.219,0-.091.11-.126.262-.132a.9.9,0,0,1,.654.249.89.89,0,0,1,.274.643c0,3.131,0,14.863,0,14.863v15.22s-1.347,32.9-28.284,32.9c-3.7,0-11.569-.845-17.888-1.457-1.073-.1-14.655,23.162-14.655,35.919H28.5a18.6,18.6,0,0,0-5.258-15.86c-.3-.3-20.084,2.866-20.084-11.206v-19.4S3.59-1562.2.745-1562.2s3.372-.087,3.372-.087S39.187-1559.069,27.94-1532.276Z" transform="translate(0 1610.291)" fill="#fff" fill-rule="evenodd"/>
  </g>
</svg>
