<?xml version="1.0" encoding="UTF-8" standalone="no"?>
<!DOCTYPE svg PUBLIC "-//W3C//DTD SVG 1.1//EN" "http://www.w3.org/Graphics/SVG/1.1/DTD/svg11.dtd">
<svg width="100%" height="100%" viewBox="0 0 28 23" version="1.1" xmlns="http://www.w3.org/2000/svg" xmlns:xlink="http://www.w3.org/1999/xlink" xml:space="preserve" xmlns:serif="http://www.serif.com/" style="fill-rule:evenodd;clip-rule:evenodd;stroke-linejoin:round;stroke-miterlimit:2;">
    <g transform="matrix(1,0,0,1,-2,-6.66667)">
        <path d="M28.903,27L15.047,27C14.495,27 14.047,27.448 14.047,28C14.047,28.552 14.495,29 15.047,29L28.903,29C29.455,29 29.903,28.552 29.903,28C29.903,27.448 29.455,27 28.903,27ZM11.642,27L10,27C9.448,27 9,27.448 9,28C9,28.552 9.448,29 10,29L11.642,29C12.194,29 12.642,28.552 12.642,28C12.642,27.448 12.194,27 11.642,27ZM3,25L16.055,25C16.607,25 17.055,24.552 17.055,24C17.055,23.448 16.607,23 16.055,23L3,23C2.448,23 2,23.448 2,24C2,24.552 2.448,25 3,25ZM20,25L21.903,25C22.455,25 22.903,24.552 22.903,24C22.903,23.448 22.455,23 21.903,23L20,23C19.448,23 19,23.448 19,24C19,24.552 19.448,25 20,25ZM12.647,10.762C14.34,8.289 17.184,6.667 20.408,6.667C25.599,6.667 29.808,10.875 29.808,16.067C29.808,18.183 29.108,20.136 27.927,21.708C27.596,22.149 26.969,22.238 26.527,21.907C26.086,21.575 25.997,20.948 26.328,20.506C27.257,19.27 27.808,17.732 27.808,16.067C27.808,11.98 24.495,8.667 20.408,8.667C17.767,8.667 15.449,10.049 14.14,12.131C14.095,12.201 13.801,12.728 13.752,12.828C13.498,13.349 13.303,13.904 13.177,14.484C13.06,15.023 12.527,15.366 11.987,15.248C11.448,15.131 11.105,14.598 11.223,14.058C11.335,13.544 11.489,13.045 11.682,12.565C11.25,12.457 10.798,12.4 10.333,12.4C7.277,12.4 4.8,14.877 4.8,17.933C4.8,18.868 5.031,19.748 5.44,20.52C5.699,21.008 5.513,21.613 5.025,21.872C4.537,22.13 3.932,21.944 3.673,21.456C3.116,20.405 2.8,19.206 2.8,17.933C2.8,13.773 6.173,10.4 10.333,10.4C11.14,10.4 11.918,10.527 12.647,10.762ZM8,21L24,21C24.552,21 25,20.552 25,20C25,19.448 24.552,19 24,19L8,19C7.448,19 7,19.448 7,20C7,20.552 7.448,21 8,21Z"/>
    </g>
</svg>
