<?xml version="1.0" encoding="UTF-8" standalone="no"?>
<!DOCTYPE svg PUBLIC "-//W3C//DTD SVG 1.1//EN" "http://www.w3.org/Graphics/SVG/1.1/DTD/svg11.dtd">
<svg width="100%" height="100%" viewBox="0 0 30 24" version="1.1" xmlns="http://www.w3.org/2000/svg" xmlns:xlink="http://www.w3.org/1999/xlink" xml:space="preserve" xmlns:serif="http://www.serif.com/" style="fill-rule:evenodd;clip-rule:evenodd;stroke-linejoin:round;stroke-miterlimit:2;">
    <g transform="matrix(1,0,0,1,-1.20978,-4)">
        <path d="M14.719,11.462C16.423,9.736 18.791,8.667 21.408,8.667C26.599,8.667 30.808,12.875 30.808,18.067C30.808,23.258 26.599,27.467 21.408,27.467C19.421,27.467 17.578,26.85 16.061,25.799C14.768,26.842 13.124,27.467 11.333,27.467C7.173,27.467 3.8,24.094 3.8,19.933C3.8,17.927 4.585,16.103 5.863,14.754C5.735,14.325 5.667,13.87 5.667,13.4C5.667,10.786 7.786,8.667 10.4,8.667C12.324,8.667 13.979,9.814 14.719,11.462ZM14.517,24.46C14.197,24.115 13.902,23.747 13.637,23.357C13.326,22.901 13.443,22.278 13.899,21.967C14.355,21.656 14.978,21.774 15.289,22.23C16.621,24.184 18.865,25.467 21.408,25.467C25.495,25.467 28.808,22.154 28.808,18.067C28.808,13.98 25.495,10.667 21.408,10.667C17.864,10.667 14.901,13.157 14.177,16.484C14.06,17.023 13.527,17.366 12.987,17.248C12.448,17.131 12.105,16.598 12.223,16.058C12.335,15.544 12.489,15.045 12.682,14.565C12.25,14.457 11.798,14.4 11.333,14.4C8.277,14.4 5.8,16.877 5.8,19.933C5.8,22.989 8.277,25.467 11.333,25.467C12.518,25.467 13.616,25.094 14.517,24.46ZM3.804,13.307L1.985,13.727C1.447,13.851 1.111,14.388 1.236,14.926C1.36,15.464 1.897,15.799 2.435,15.675L4.254,15.255C4.791,15.131 5.127,14.594 5.003,14.056C4.879,13.518 4.342,13.183 3.804,13.307ZM13.011,12.588C12.665,11.475 11.627,10.667 10.4,10.667C8.907,10.667 7.693,11.864 7.667,13.351C8.752,12.745 10.002,12.4 11.333,12.4C11.91,12.4 12.471,12.465 13.011,12.588ZM15.321,9.933L16.771,8.759C17.2,8.411 17.266,7.781 16.919,7.352C16.572,6.923 15.942,6.857 15.513,7.204L14.062,8.379C13.633,8.726 13.567,9.357 13.914,9.786C14.262,10.215 14.892,10.281 15.321,9.933ZM5.826,8.379L4.375,7.204C3.946,6.857 3.316,6.923 2.969,7.352C2.621,7.781 2.687,8.411 3.116,8.759L4.567,9.933C4.996,10.281 5.626,10.215 5.974,9.786C6.321,9.357 6.255,8.726 5.826,8.379ZM10.944,6.867L10.944,5C10.944,4.448 10.496,4 9.944,4C9.392,4 8.944,4.448 8.944,5L8.944,6.867C8.944,7.419 9.392,7.867 9.944,7.867C10.496,7.867 10.944,7.419 10.944,6.867Z"/>
    </g>
</svg>
