<svg xmlns="http://www.w3.org/2000/svg" width="47.406" height="48.581" viewBox="0 0 47.406 48.581">
  <g id="Group_9" data-name="Group 9" transform="translate(0 1610.291)">
    <path id="Path_1" data-name="Path 1" d="M13.8-1571.752a16.148,16.148,0,0,0-6.238-5.614c-.179-.081,6.05,5.5,7.3,11.671,0,.008.945,0,.945,0s4.005-17.844,17.806-27.424a25.161,25.161,0,0,0-12.4,10.36c-1.2,2.032-7.309-17.233,7.212-20.936,11.049-2.818,18.388-.46,18.388-6.53,0-.045.054-.062.129-.065a.442.442,0,0,1,.323.123.441.441,0,0,1,.135.318c0,1.546,0,7.342,0,7.342v7.519s-.665,16.254-13.972,16.254c-1.827,0-5.715-.418-8.836-.72-.53-.051-7.239,11.442-7.239,17.744H14.079a9.191,9.191,0,0,0-2.6-7.835c-.148-.15-9.921,1.416-9.921-5.535v-9.581s.213-1.874-1.192-1.874,1.666-.042,1.666-.042S19.358-1584.988,13.8-1571.752Z" transform="translate(0)" fill="#b54542" fill-rule="evenodd"/>
  </g>
</svg>
