<?xml version="1.0" encoding="UTF-8" standalone="no"?>
<!DOCTYPE svg PUBLIC "-//W3C//DTD SVG 1.1//EN" "http://www.w3.org/Graphics/SVG/1.1/DTD/svg11.dtd">
<svg width="100%" height="100%" viewBox="0 0 46 47" version="1.1" xmlns="http://www.w3.org/2000/svg" xmlns:xlink="http://www.w3.org/1999/xlink" xml:space="preserve" xmlns:serif="http://www.serif.com/" style="fill-rule:evenodd;clip-rule:evenodd;stroke-linejoin:round;stroke-miterlimit:2;">
    <g transform="matrix(1,0,0,1,0.0001431,0.000207188)">
        <g transform="matrix(0.836797,0,0,0.836797,-977.128,-518.811)">
            <g>
                <path d="M1222.16,619.996L1167.7,619.996L1167.7,674.968L1222.16,674.968L1222.16,619.996ZM1218.48,623.679L1171.38,623.679L1171.38,671.284L1218.48,671.284L1218.48,623.679ZM1199.32,661.504L1175.25,661.504L1175.25,664.532L1199.32,664.532L1199.32,661.504ZM1209.99,654.44L1175.25,654.44L1175.25,657.468L1209.99,657.468L1209.99,654.44ZM1214.6,647.376L1175.25,647.376L1175.25,650.404L1214.6,650.404L1214.6,647.376ZM1191.68,640.312L1175.25,640.312L1175.25,643.339L1191.68,643.339L1191.68,640.312ZM1205.15,638.519C1205.15,638.519 1204.42,637.331 1203.24,636.794C1203.18,636.77 1205.09,638.485 1205.48,640.38C1205.48,640.383 1205.77,640.38 1205.77,640.38C1205.77,640.38 1207,634.898 1211.24,631.955C1211.25,631.947 1208.83,632.762 1207.43,635.138C1207.06,635.762 1205.18,629.843 1209.64,628.706C1213.04,627.84 1215.3,628.564 1215.3,626.699C1215.3,626.685 1215.31,626.68 1215.33,626.679C1215.37,626.678 1215.41,626.691 1215.43,626.716C1215.46,626.742 1215.48,626.777 1215.48,626.814L1215.48,631.38C1215.48,631.38 1215.27,636.374 1211.18,636.374C1210.62,636.374 1209.43,636.245 1208.47,636.153C1208.31,636.137 1206.24,639.667 1206.24,641.604L1205.24,641.604C1205.37,640.721 1205.07,639.828 1204.44,639.197C1204.39,639.151 1201.39,639.632 1201.39,637.496L1201.39,634.553C1201.39,634.553 1201.46,633.977 1201.02,633.977C1200.59,633.977 1201.54,633.964 1201.54,633.964C1201.54,633.964 1206.86,634.453 1205.15,638.519Z" style="fill:rgb(181,69,66);"/>
            </g>
        </g>
    </g>
</svg>
