<?xml version="1.0" encoding="UTF-8" standalone="no"?>
<!DOCTYPE svg PUBLIC "-//W3C//DTD SVG 1.1//EN" "http://www.w3.org/Graphics/SVG/1.1/DTD/svg11.dtd">
<svg width="100%" height="100%" viewBox="0 0 75 75" version="1.1" xmlns="http://www.w3.org/2000/svg" xmlns:xlink="http://www.w3.org/1999/xlink" xml:space="preserve" xmlns:serif="http://www.serif.com/" style="fill-rule:evenodd;clip-rule:evenodd;stroke-linejoin:round;stroke-miterlimit:2;">
    <g transform="matrix(1.48627,0,0,1.48627,-10.7142,-11.8901)">
        <path d="M51.5,8L13.38,8L13.38,58.462L51.5,58.462L51.5,8ZM48.297,11.205L16.582,11.205L16.582,55.256L48.297,55.256L48.297,11.205ZM36.935,50.275L18.92,50.275L18.92,52.911L36.935,52.911L36.935,50.275ZM31.621,44.126L18.92,44.126L18.92,46.762L31.621,46.762L31.621,44.126ZM40.908,37.978L18.92,37.978L18.92,40.614L40.908,40.614L40.908,37.978ZM44.92,31.83L18.92,31.83L18.92,34.466L44.92,34.466L44.92,31.83ZM24.972,25.682L18.92,25.682L18.92,28.317L24.972,28.317L24.972,25.682ZM36.695,24.121C36.695,24.121 36.06,23.088 35.033,22.62C34.981,22.599 36.643,24.092 36.983,25.741C36.983,25.744 37.235,25.741 37.235,25.741C37.235,25.741 38.305,20.97 41.996,18.409C42.004,18.402 39.898,19.111 38.68,21.179C38.358,21.722 36.721,16.57 40.603,15.581C43.562,14.827 45.529,15.457 45.529,13.834C45.529,13.822 45.538,13.817 45.556,13.817C45.59,13.816 45.625,13.827 45.643,13.849C45.669,13.871 45.686,13.902 45.686,13.934L45.686,17.908C45.686,17.908 45.503,22.255 41.944,22.255C41.456,22.255 40.42,22.142 39.585,22.062C39.446,22.048 37.644,25.121 37.644,26.807L36.774,26.807C36.887,26.038 36.626,25.261 36.077,24.712C36.034,24.672 33.423,25.09 33.423,23.231L33.423,20.67C33.423,20.67 33.484,20.168 33.101,20.168C32.727,20.168 33.553,20.157 33.553,20.157C33.553,20.157 38.184,20.583 36.695,24.121Z" style="fill:rgb(181,69,66);"/>
    </g>
</svg>
