<?xml version="1.0" encoding="UTF-8" standalone="no"?>
<!DOCTYPE svg PUBLIC "-//W3C//DTD SVG 1.1//EN" "http://www.w3.org/Graphics/SVG/1.1/DTD/svg11.dtd">
<svg width="100%" height="100%" viewBox="0 0 46 46" version="1.1" xmlns="http://www.w3.org/2000/svg" xmlns:xlink="http://www.w3.org/1999/xlink" xml:space="preserve" xmlns:serif="http://www.serif.com/" style="fill-rule:evenodd;clip-rule:evenodd;stroke-linejoin:round;stroke-miterlimit:2;">
    <g transform="matrix(1,0,0,1,0,-0.214121)">
        <path d="M22.786,0.214C35.362,0.214 45.572,10.424 45.572,23C45.572,35.576 35.362,45.786 22.786,45.786C10.21,45.786 0,35.576 0,23C0,10.424 10.21,0.214 22.786,0.214ZM22.786,3.547C33.522,3.547 42.239,12.264 42.239,23C42.239,33.736 33.522,42.453 22.786,42.453C12.05,42.453 3.333,33.736 3.333,23C3.333,12.264 12.05,3.547 22.786,3.547ZM21.245,25.118C21.164,24.922 21.119,24.708 21.119,24.483L21.119,14.36C21.119,13.44 21.866,12.693 22.786,12.693C23.706,12.693 24.453,13.44 24.453,14.36L24.453,23.792L31.123,30.462C31.773,31.113 31.773,32.169 31.123,32.819C30.472,33.47 29.416,33.47 28.766,32.819L21.607,25.661C21.448,25.502 21.328,25.319 21.247,25.123L21.245,25.118Z" style="fill:rgb(181,69,66);"/>
    </g>
</svg>
