<svg xmlns="http://www.w3.org/2000/svg" width="48.709" height="48.478" viewBox="0 0 48.709 48.478">
  <g id="ruler_icon" transform="translate(-2.127 -2.301)">
    <g id="Group_8" data-name="Group 8" transform="translate(2.127 2.301)">
      <path id="svg_4" d="M36.132,2.3,2.127,36.22,16.686,50.779l34.15-34.226Z" transform="translate(-2.127 -2.301)" fill="#b54542"/>
      <path id="svg_1" d="M12.116,37.258l-1.507,1.507L5.5,33.656l1.507-1.507Zm.219-10.437,2.956,3L13.807,31.3,10.83,28.327Zm5.394-5.394L22.776,26.6l-1.507,1.507L16.16,23ZM23,16.16l2.977,2.977-1.507,1.507-2.977-2.977Zm5.33-5.33,5.109,5.109-1.507,1.507-5.109-5.109Zm5.33-5.33,2.977,2.977L35.126,9.985,32.149,7.007Z" transform="translate(-1.904 -2.09)" fill="#fff"/>
    </g>
  </g>
</svg>
