<?xml version="1.0" encoding="UTF-8" standalone="no"?>
<!DOCTYPE svg PUBLIC "-//W3C//DTD SVG 1.1//EN" "http://www.w3.org/Graphics/SVG/1.1/DTD/svg11.dtd">
<svg width="100%" height="100%" viewBox="0 0 63 63" version="1.1" xmlns="http://www.w3.org/2000/svg" xmlns:xlink="http://www.w3.org/1999/xlink" xml:space="preserve" xmlns:serif="http://www.serif.com/" style="fill-rule:evenodd;clip-rule:evenodd;stroke-linejoin:round;stroke-miterlimit:2;">
    <g transform="matrix(1,0,0,1,-969.752,-626.737)">
        <g transform="matrix(1.95478,0,0,1.95478,969.752,626.737)">
            <path d="M10,22L8,24L8,18L6,18L6,22L0,16L6,10L6,14L8,14L8,8L14,8L14,6L10,6L16,0L22,6L18,6L18,8L24,8L22,10L10,10L10,22Z" style="fill:rgb(181,69,66);"/>
            <path d="M22,10L24,8L24,14L26,14L26,10L32,16L26,22L26,18L24,18L24,24L18,24L18,26L22,26L16,32L10,26L14,26L14,24L8,24L10,22L22,22L22,10Z" style="fill:rgb(181,69,66);fill-opacity:0.28;"/>
            <g id="svg_1" transform="matrix(0.428571,0,0,0.428571,15.7143,13.1429)">
                <path d="M24,4C16.27,4 10,10.27 10,18C10,28.5 24,44 24,44C24,44 38,28.5 38,18C38,10.27 31.73,4 24,4ZM24,23C21.24,23 19,20.76 19,18C19,15.24 21.24,13 24,13C26.76,13 29,15.24 29,18C29,20.76 26.76,23 24,23Z" style="fill:rgb(181,69,66);fill-rule:nonzero;"/>
            </g>
        </g>
    </g>
</svg>
