<?xml version="1.0" encoding="UTF-8" standalone="no"?>
<!DOCTYPE svg PUBLIC "-//W3C//DTD SVG 1.1//EN" "http://www.w3.org/Graphics/SVG/1.1/DTD/svg11.dtd">
<svg width="100%" height="100%" viewBox="0 0 46 46" version="1.1" xmlns="http://www.w3.org/2000/svg" xmlns:xlink="http://www.w3.org/1999/xlink" xml:space="preserve" xmlns:serif="http://www.serif.com/" style="fill-rule:evenodd;clip-rule:evenodd;stroke-linejoin:round;stroke-miterlimit:2;">
    <g transform="matrix(1,0,0,1,0.00196652,0)">
        <g transform="matrix(1,0,0,1,-1344.01,-631.9)">
            <g transform="matrix(0.361367,0,0,0.339341,1333.33,631.9)">
                <path d="M40.267,19.724C34.325,19.724 29.549,24.499 29.549,30.419L29.549,124.862C29.549,130.782 34.324,135.557 40.267,135.557L144.941,135.557C150.884,135.557 155.659,130.782 155.659,124.862L155.659,30.419C155.659,24.499 150.884,19.724 144.941,19.724L40.267,19.724ZM40.267,28.985L144.941,28.985C145.744,28.985 146.399,29.62 146.399,30.419L146.399,124.862C146.399,125.662 145.744,126.297 144.941,126.297L40.267,126.297C39.465,126.297 38.809,125.662 38.809,124.862L38.809,30.419C38.809,29.62 39.465,28.985 40.267,28.985ZM87.974,44.531L87.974,110.751C87.974,113.306 90.049,115.381 92.604,115.381C95.16,115.381 97.234,113.306 97.234,110.751L97.234,44.531C97.234,41.976 95.16,39.901 92.604,39.901C90.049,39.901 87.974,41.976 87.974,44.531ZM121.024,44.531L121.024,110.751C121.024,113.306 123.099,115.381 125.654,115.381C128.21,115.381 130.285,113.306 130.285,110.751L130.285,44.531C130.285,41.976 128.21,39.901 125.654,39.901C123.099,39.901 121.024,41.976 121.024,44.531ZM54.924,44.531L54.924,110.751C54.924,113.306 56.999,115.381 59.554,115.381C62.109,115.381 64.184,113.306 64.184,110.751L64.184,44.531C64.184,41.976 62.109,39.901 59.554,39.901C56.999,39.901 54.924,41.976 54.924,44.531ZM71.122,5.308C71.09,5.087 71.073,4.861 71.073,4.631C71.073,2.075 73.148,0 75.703,0L109.863,0C112.418,0 114.493,2.075 114.493,4.631C114.493,4.861 114.476,5.087 114.444,5.308L150.941,5.308C153.497,5.308 155.571,7.382 155.571,9.938C155.571,12.493 153.497,14.568 150.941,14.568L34.625,14.568C32.069,14.568 29.994,12.493 29.994,9.938C29.994,7.382 32.069,5.308 34.625,5.308L71.122,5.308Z" style="fill:rgb(181,69,66);"/>
            </g>
        </g>
    </g>
</svg>
