<svg xmlns="http://www.w3.org/2000/svg" width="63.41" height="48.308" viewBox="0 0 63.41 48.308">
  <g id="wheelbarrow_icon" transform="translate(-7.719 -21.792)">
    <path id="svg_3" d="M30.965,86.96a5.911,5.911,0,0,1-5.037,5.933,4.815,4.815,0,0,1-.9.056,5.909,5.909,0,0,1-.84-11.754,4.816,4.816,0,0,1,.9-.056,5.938,5.938,0,0,1,4.142,1.735l2.183-.952A8.189,8.189,0,0,0,25.088,78.9a9.152,9.152,0,0,0-1.231.112,8.163,8.163,0,0,0,1.231,16.232,9.153,9.153,0,0,0,1.231-.112A8.172,8.172,0,0,0,33.2,86.064Z" transform="translate(-4.058 -25.144)" fill="#b54542"/>
    <path id="svg_4" d="M80.485,22.356a1.064,1.064,0,0,0-1.511-.392L73.545,25.1a1.126,1.126,0,0,0-.5.616L66.492,45.361l-36.437,15.5a1.136,1.136,0,0,0-.616,1.455,1.076,1.076,0,0,0,1.007.672,1.317,1.317,0,0,0,.448-.112l13.6-5.709,9.011,9.459a2.929,2.929,0,0,0,2.071.9,1.232,1.232,0,0,0,.448-.056l2.743-.392a2.907,2.907,0,0,0,2.463-2.966l-.56-13.825,7.164-3.022a1.211,1.211,0,0,0,.616-.672l6.6-19.814,5.037-2.911A1.064,1.064,0,0,0,80.485,22.356ZM58.992,64.223a.665.665,0,0,1-.56.672l-2.743.392a.677.677,0,0,1-.56-.168l-8.4-8.844,11.754-4.981Z" transform="translate(-9.529)" fill="#b54542"/>
    <path id="svg_2" d="M50.152,37.881a1.215,1.215,0,0,1,.934.458l1.623,2.295a1.1,1.1,0,0,1,.168.84l-.616,3.694c.952,5.149-3.638,8.284-3.806,8.4a.067.067,0,0,0-.051.023l-.01.01a.067.067,0,0,1-.051.023c-.448.224-11.138,5.485-16.12,6.549a11.165,11.165,0,0,1-2.295.28,10,10,0,0,1-6.6-2.463c-2.295-1.959-8.4-7-10.523-8.284-2.911.168-4.814-2.966-4.925-3.134A1.19,1.19,0,0,1,7.82,45.5a1.076,1.076,0,0,1,.84-.616l41.307-7a1.277,1.277,0,0,1,.165-.011Z" transform="translate(0 -7.084)" fill="#b54542"/>
  </g>
</svg>
